<svg width="24" height="20" viewBox="0 0 24 20" fill="none" xmlns="http://www.w3.org/2000/svg">
<g clip-path="url(#clip0_23_211)">
<path d="M12 1.33846C15.8814 1.33846 18.4365 3.73766 19.897 5.7487C21.8041 8.37544 22.657 11.4338 22.657 13.2976C22.657 14.857 20.7834 16.162 19.2121 16.9818C17.1035 18.0793 14.6793 18.6615 12.2048 18.6615H11.5669C9.13598 18.6615 6.77224 18.1094 4.73083 17.0688C3.18299 16.2791 1.34303 14.9841 1.34303 13.2976C1.34303 11.4941 2.06491 8.4089 4.09961 5.64497C5.54337 3.68078 8.08842 1.33846 12 1.33846ZM12 0C4.04253 0 0 8.50929 0 13.2976C0 15.5596 2.00448 17.1792 4.11975 18.26C6.4197 19.4345 8.98489 20 11.5669 20H12.2048C14.8573 20 17.4863 19.3943 19.8366 18.1663C21.9687 17.0554 24.0034 15.4358 24.0034 13.2976C24 8.80375 19.9575 0 12 0Z" fill="black"/>
<path d="M19.3095 12.1537L18.4667 8.16844C18.3525 7.62636 17.8187 7.28171 17.2748 7.39882L15.0319 7.87733C13.0308 8.30563 10.9625 8.30563 8.96474 7.87733L6.72188 7.39882C6.17795 7.28171 5.64409 7.62971 5.52993 8.16844L4.68718 12.147C4.5193 12.9367 4.96586 13.7264 5.72803 13.9975C9.78399 15.4263 14.2059 15.4296 18.2619 14.0041C19.0274 13.7365 19.4706 12.9434 19.3061 12.1537H19.3095Z" fill="black"/>
<path d="M8.22607 12.8863C8.89919 12.8863 9.44487 12.3425 9.44487 11.6717C9.44487 11.0009 8.89919 10.457 8.22607 10.457C7.55294 10.457 7.00726 11.0009 7.00726 11.6717C7.00726 12.3425 7.55294 12.8863 8.22607 12.8863Z" fill="white"/>
<path d="M15.7739 12.8863C16.447 12.8863 16.9927 12.3425 16.9927 11.6717C16.9927 11.0009 16.447 10.457 15.7739 10.457C15.1008 10.457 14.5551 11.0009 14.5551 11.6717C14.5551 12.3425 15.1008 12.8863 15.7739 12.8863Z" fill="white"/>
</g>
<defs>
<clipPath id="clip0_23_211">
<rect width="24" height="20" fill="white"/>
</clipPath>
</defs>
</svg>
