<svg width="24" height="21" viewBox="0 0 24 21" fill="none" xmlns="http://www.w3.org/2000/svg">
<g clip-path="url(#clip0_23_210)">
<path d="M12.2048 21C14.8573 21 17.4863 20.3641 19.8366 19.0746C21.9687 17.9081 24.0034 16.2076 24.0034 13.9625C24 9.24394 19.9575 0 12 0C4.04253 0 0 8.93475 0 13.9625C0 16.3376 2.00448 18.0381 4.11975 19.173C6.4197 20.4062 8.98489 21 11.5669 21H12.2048Z" fill="black"/>
<path d="M19.3095 12.7608L18.4667 8.57623C18.3525 8.00705 17.8187 7.64516 17.2748 7.76813L15.0319 8.27056C13.0308 8.72028 10.9625 8.72028 8.96474 8.27056L6.72188 7.76813C6.17795 7.64516 5.64409 8.01056 5.52993 8.57623L4.68718 12.7537C4.5193 13.5829 4.96586 14.4121 5.72803 14.6967C9.78399 16.1969 14.2059 16.2005 18.2619 14.7037C19.0274 14.4226 19.4706 13.5899 19.3061 12.7608H19.3095Z" fill="white"/>
<path d="M8.22607 13.5303C8.89919 13.5303 9.44487 12.9593 9.44487 12.2549C9.44487 11.5505 8.89919 10.9795 8.22607 10.9795C7.55294 10.9795 7.00726 11.5505 7.00726 12.2549C7.00726 12.9593 7.55294 13.5303 8.22607 13.5303Z" fill="black"/>
<path d="M15.7739 13.5303C16.447 13.5303 16.9927 12.9593 16.9927 12.2549C16.9927 11.5505 16.447 10.9795 15.7739 10.9795C15.1008 10.9795 14.5551 11.5505 14.5551 12.2549C14.5551 12.9593 15.1008 13.5303 15.7739 13.5303Z" fill="black"/>
</g>
<defs>
<clipPath id="clip0_23_210">
<rect width="24" height="21" fill="white"/>
</clipPath>
</defs>
</svg>
